<?xml version="1.0" encoding="utf-8"?>
<!-- Generator: Adobe Illustrator 11.0, SVG Export Plug-In  -->
<!DOCTYPE svg PUBLIC "-//W3C//DTD SVG 1.0//EN"    "http://www.w3.org/TR/2001/REC-SVG-20010904/DTD/svg10.dtd" [
	<!ENTITY ns_flows "http://ns.adobe.com/Flows/1.0/">
	<!ENTITY ns_svg "http://www.w3.org/2000/svg">
	<!ENTITY ns_xlink "http://www.w3.org/1999/xlink">
]>
<svg  xmlns="&ns_svg;" xmlns:xlink="&ns_xlink;" xmlns:a="http://ns.adobe.com/AdobeSVGViewerExtensions/3.0/"
	 width="125" height="55" viewBox="0 0 125 55" xml:space="preserve">
	<defs>
	</defs>
	<g>
		<rect fill="#333333" width="125" height="55"/> 
		<polygon fill="#FFFFFF" points="31.7851563,21.9726563 34.1640625,21.9726563 34.1640625,27.9472656 41.3383789,27.9472656 
			41.3383789,21.9726563 43.734375,21.9726563 43.734375,36.3183594 41.3383789,36.3183594 41.3383789,30.3457031 
			34.1640625,30.3457031 34.1640625,36.3183594 31.7851563,36.3183594 "/>
		<path fill="#FFFFFF" d="M59.4975586,36.3183594l-2.769043-4.7753906h-4.0507813v4.7753906h-2.3789063V21.9731445h7.1738281
			c1.309082,0,2.434082,0.4682617,3.3691406,1.4038086c0.9379883,0.9394531,1.4057617,2.0605469,1.4057617,3.3691406
			c0,0.9941406-0.2827148,1.8964844-0.8466797,2.7089844c-0.5532227,0.7988281-1.2543945,1.3710938-2.1103516,1.7167969
			l2.9570313,5.1464844H59.4975586z M57.4726563,24.3691406h-4.7949219v4.7773438h4.7949219
			c0.6459961,0,1.2050781-0.2363281,1.6738281-0.703125c0.4692383-0.46875,0.703125-1.0351563,0.703125-1.6972656
			c0-0.6469727-0.2338867-1.203125-0.703125-1.6738281C58.6777344,24.6030273,58.1186523,24.3691406,57.4726563,24.3691406"/>
		<polygon fill="#FFFFFF" points="78.3613281,21.9726563 78.3613281,24.3686523 71.1875,24.3686523 71.1875,27.9667969 
			78.3613281,27.9667969 78.3613281,30.3457031 71.1875,30.3457031 71.1875,33.921875 78.3613281,33.921875 78.3613281,36.3183594 
			68.8144531,36.3183594 68.8144531,21.9726563 "/>
		<path fill="#FFFFFF" d="M94.2207031,33.9101563h-6.6152344l-1.2246094,2.4082031h-2.6757813l7.1972656-14.6972656
			l7.1992188,14.6972656h-2.6757813L94.2207031,33.9101563z M88.7851563,31.5273438h4.234375l-2.1171875-4.5332031
			L88.7851563,31.5273438z"/>
		<path fill="#FFFFFF" d="M103.1445313,21.9726563h4.7734375c0.9804688,0,1.9023438,0.1894531,2.7714844,0.5664063
			c0.8671875,0.3808594,1.6308594,0.8989258,2.2851563,1.5527344c0.6542969,0.6542969,1.1679688,1.4160156,1.5488281,2.2832031
			c0.3808594,0.8691406,0.5683594,1.7910156,0.5683594,2.7714844c0,0.9765625-0.1875,1.9003906-0.5683594,2.7695313
			s-0.890625,1.6289063-1.5390625,2.2832031c-0.6484375,0.65625-1.4101563,1.171875-2.2851563,1.5507813
			s-1.8007813,0.5683594-2.78125,0.5683594h-4.7734375V21.9726563z M107.9179688,33.921875
			c0.6621094,0,1.2832031-0.125,1.8613281-0.375c0.578125-0.2460938,1.0859375-0.5898438,1.5195313-1.0332031
			c0.4355469-0.4394531,0.7753906-0.9511719,1.0234375-1.5292969s0.3730469-1.1914063,0.3730469-1.8378906
			c0-0.6484375-0.125-1.2617188-0.3730469-1.8417969c-0.2480469-0.578125-0.5917969-1.0859375-1.03125-1.5288086
			c-0.4433594-0.4399414-0.953125-0.7856445-1.53125-1.0336914s-1.1914063-0.3730469-1.8417969-0.3730469h-2.3964844v9.5527344
			H107.9179688z"/>
		<path fill="#FFFFFF" d="M21.8359375,36.3183594h-2.3930664V24.3657227h-3.5908203
			c-1.0673828,0-1.9399414,0.8686523-1.9399414,1.9370117c0,1.0664063,0.8725586,1.9355469,1.9399414,1.9355469v2.3925781
			c-2.3891602,0-4.3320313-1.9414063-4.3320313-4.328125c0-2.3891602,1.9428711-4.3300781,4.3320313-4.3300781h3.5908203v-1.2109375
			c0-1.9863281,1.6181641-3.6030273,3.605957-3.6030273c1.9838867,0,3.6000977,1.6166992,3.6000977,3.6030273
			c0,1.9858398-1.6162109,3.6040039-3.6000977,3.6040039h-1.2128906V36.3183594z M21.8359375,21.9726563h1.2128906
			c0.6679688,0,1.2089844-0.5429688,1.2089844-1.2109375s-0.5410156-1.2109375-1.2089844-1.2109375
			c-0.6699219,0-1.2128906,0.5429688-1.2128906,1.2109375V21.9726563z"/>
	</g>
</svg>
